# xmcd
#
# Track frame offsets: 
#        150
#        13295
#        30415
#        63035
#        77307
#        90935
#        108165
#        125027
#        135932
#        149275
#        163505
#        181757
#        195257
#        209685
#        224837
#        237155
#        246847
#        256175
#        271980
#        284757
#        304307
#
# Disc length: 4282 seconds
#
# Revision: 4
# Processed by: cddbd v1.5.2PL0 Copyright (c) Steve Scherf et al.
# Submitted via: ExactAudioCopy v1.0b1
#
DISCID=2410b815
DTITLE=Various Artist - American Popular Song Disc 4
DYEAR=1984
DGENRE=Pop
TTITLE0=Ella Fitzgerald - This Can't Be Love
TTITLE1=Ella Fitzgerald - How Long Has This Been Going On
TTITLE2=Ella Fitzgerald - Blues In The Night
TTITLE3=Carmen McRae - Speak Low
TTITLE4=Carmen McRae - Isn't It Romantic
TTITLE5=Carmen McRae - Baltimore Oriole
TTITLE6=Frank Sinatra - I've Got You Under My Skin
TTITLE7=Frank Sinatra - I Guess I'll Have To Change My Plan
TTITLE8=Johnny Mathis - What'll I Do
TTITLE9=Joe Williams - I'm Beginning To See The Light
TTITLE10=Joe Williams - Come Rain Or Come Shine
TTITLE11=Fred Astaire - Something's Gotta Give
TTITLE12=Mel Torme - Nice Work If You Can Get It
TTITLE13=Mel Torme - When The Sun Comes Out
TTITLE14=Mel Torme - One Morning In May
TTITLE15=Kay Starr - You're Driving Me Crazy
TTITLE16=Lena Horne - Just One Of Those Things
TTITLE17=Teddi King - You Don't Know What Love Is
TTITLE18=Teddi King - My Future Just Passed
TTITLE19=Elaine Stritch - Easy Street
TTITLE20=Mabel Mercer - My Shining Hour
EXTD=
EXTT0=
EXTT1=
EXTT2=
EXTT3=
EXTT4=
EXTT5=
EXTT6=
EXTT7=
EXTT8=
EXTT9=
EXTT10=
EXTT11=
EXTT12=
EXTT13=
EXTT14=
EXTT15=
EXTT16=
EXTT17=
EXTT18=
EXTT19=
EXTT20=
PLAYORDER=
